<svg width="121" height="124" viewBox="0 0 121 124" fill="none" xmlns="http://www.w3.org/2000/svg">
<g filter="url(#filter0_d_1217_6307)">
<path fill-rule="evenodd" clip-rule="evenodd" d="M7.13961 30.8135C4.33353 32.0344 3.46403 35.5801 5.32873 38.1995C6.86884 40.3619 8.28576 40.7113 15.5196 40.7113H21.9605L22.6281 43.1289C26.6262 57.6045 36.1629 91.0316 36.5156 91.806C36.7662 92.3564 37.5768 93.0939 38.3168 93.445C39.5681 94.0386 40.702 93.9398 54.5508 92.0264C62.7399 90.8953 76.1565 89.0567 84.3658 87.9404C98.2377 86.0547 99.375 85.8373 100.47 84.8594C101.557 83.889 102.089 82.0297 107.329 60.8929C110.453 48.2899 113.017 37.3224 113.025 36.5211C113.037 35.4094 112.73 34.7863 111.73 33.8932C111.01 33.2495 110.08 32.7227 109.664 32.7227C109.248 32.7227 91.4382 35.1866 70.0869 38.1978C48.736 41.2087 31.2259 43.6212 31.1759 43.5586C31.1259 43.4955 30.4779 41.3663 29.7359 38.8264C28.9933 36.2864 28.1768 33.9563 27.9212 33.6481C26.9003 32.4179 24.9692 31.9251 17.8632 31.0809C9.2284 30.0554 8.90172 30.047 7.13961 30.8135ZM96.9692 43.7595C96.9633 44.0488 96.785 45.0419 96.5731 45.9669C96.3608 46.8919 95.2315 53.3248 94.0635 60.2622C92.895 67.1996 91.8418 73.2945 91.7224 73.8062C91.5736 74.4436 91.0102 74.8754 89.9325 75.1781C87.3308 75.9084 48.9895 84.0176 48.1377 84.0176C47.1917 84.0176 47.4725 84.6601 42.7194 71.6143C40.6129 65.8332 38.5451 60.1701 38.1247 59.0299C37.7042 57.8896 37.4524 56.717 37.5646 56.4239C37.7992 55.8126 37.3826 55.9114 70.0705 48.7229C83.5985 45.7478 95.1873 43.2958 95.8231 43.2739C96.4941 43.2508 96.9751 43.4547 96.9692 43.7595ZM80.5389 0.964106C77.1013 2.14053 74.3078 3.77356 72.0348 5.93551C69.8691 7.99572 70.2521 8.40271 74.0677 8.09621C75.5456 7.97764 76.7548 8.02305 76.7548 8.19753C76.7548 8.37202 75.9795 9.26715 75.0318 10.1867C69.2346 15.8127 70.771 25.7871 77.7353 27.7371C80.8462 28.6083 85.0654 28.1277 88.3033 26.5338C95.6477 22.9179 99.3014 12.5811 95.7179 5.55668C94.7892 3.73656 91.9604 1.01329 90.3702 0.408685C88.4538 -0.319534 83.4677 -0.0382473 80.5389 0.964106ZM109.018 85.7538C102.353 92.7484 98.4605 95.9787 93.5442 98.5943C87.5339 101.792 78.265 104.388 69.1686 105.42C63.8133 106.028 54.7144 105.723 49.8948 104.773C41.1271 103.046 31.8537 98.892 23.5935 92.9905C18.8475 89.6005 17.8632 89.1624 17.8632 90.4414C17.8632 91.4067 21.6598 96.2167 25.0159 99.5025C35.7281 109.992 48.7284 115.213 64.1127 115.203C83.7448 115.192 98.4134 108.051 109.579 93.0713C112.707 88.8752 116.122 82.6643 116.324 80.8076C116.595 78.3084 115.235 79.2288 109.018 85.7538Z" fill="#0182FE"/>
</g>
<defs>
<filter id="filter0_d_1217_6307" x="0.340698" y="0" width="120.015" height="123.203" filterUnits="userSpaceOnUse" color-interpolation-filters="sRGB">
<feFlood flood-opacity="0" result="BackgroundImageFix"/>
<feColorMatrix in="SourceAlpha" type="matrix" values="0 0 0 0 0 0 0 0 0 0 0 0 0 0 0 0 0 0 127 0" result="hardAlpha"/>
<feOffset dy="4"/>
<feGaussianBlur stdDeviation="2"/>
<feComposite in2="hardAlpha" operator="out"/>
<feColorMatrix type="matrix" values="0 0 0 0 0 0 0 0 0 0 0 0 0 0 0 0 0 0 0.25 0"/>
<feBlend mode="normal" in2="BackgroundImageFix" result="effect1_dropShadow_1217_6307"/>
<feBlend mode="normal" in="SourceGraphic" in2="effect1_dropShadow_1217_6307" result="shape"/>
</filter>
</defs>
</svg>
